# Blender 4.2.3 LTS
# www.blender.org
mtllib Laser.mtl
o Cube
v -0.284693 0.000000 0.320165
v 0.021984 1.976497 0.000022
v -0.284693 0.000000 -0.320121
v 0.328661 0.000000 0.320165
v 0.328661 0.000000 -0.320121
vn -0.9882 0.1533 -0.0000
vn -0.0000 0.1599 -0.9871
vn 0.9882 0.1533 -0.0000
vn -0.0000 0.1599 0.9871
vn -0.0000 -1.0000 -0.0000
vt 0.375000 0.000000
vt 0.625000 0.250000
vt 0.375000 0.250000
vt 0.625000 0.500000
vt 0.375000 0.500000
vt 0.625000 0.750000
vt 0.375000 0.750000
vt 0.625000 1.000000
vt 0.375000 1.000000
vt 0.125000 0.500000
vt 0.125000 0.750000
s 0
f 1/1/1 2/2/1 3/3/1
f 3/3/2 2/4/2 5/5/2
f 5/5/3 2/6/3 4/7/3
f 4/7/4 2/8/4 1/9/4
f 3/10/5 5/5/5 4/7/5 1/11/5
